<svg
            xmlns="http://www.w3.org/2000/svg"
            width="217"
            height="84"
            viewBox="0 0 217 84"
            fill="none"
          >
            <path
              d="M203.576 20.4381C203.287 20.2552 202.998 20.0427 202.659 19.9479C200.77 19.3814 199.325 18.4966 197.88 17.5525C196.629 16.7007 194.985 16.0496 193.438 15.3705C191.747 14.6296 189.956 14.0056 188.215 13.3527C186.57 12.7312 184.876 12.1385 183.231 11.5466C182.65 11.329 182.069 11.141 181.489 10.9234C180.618 10.6118 179.747 10.3002 178.827 9.98773C177.665 9.58214 176.453 9.29421 175.291 8.91824C174.71 8.73026 174.08 8.57108 173.548 8.35432C171.13 7.36364 168.365 6.81145 165.65 6.08236C165.55 6.22881 165.451 6.37528 165.351 6.4921C165.301 6.55052 165.252 6.60895 165.201 6.69699C164.909 6.69189 164.617 6.68677 164.326 6.65204C162.433 6.29296 160.491 5.96267 158.698 5.48676C157.825 5.26405 156.95 5.18951 156.124 5.05654C155.25 4.92272 154.375 4.8778 153.55 4.7152C153.307 4.68132 153.113 4.61866 152.871 4.55515C152.144 4.36461 151.368 4.14358 150.592 4.01146C149.96 3.91153 149.328 3.84123 148.646 3.8886C148.256 3.91143 147.819 3.81489 147.432 3.7192C145.298 3.20772 142.913 3.13645 140.831 2.44803C138.688 2.4699 136.898 1.8162 134.908 1.48505C133.499 1.25299 132.041 1.13862 130.583 0.935343C130.049 0.866734 129.463 0.945442 128.878 1.02414C127.511 1.17813 126.195 1.2737 124.834 1.16101C124.492 1.18469 124.2 1.17958 123.859 1.20327C122.639 1.35981 121.522 1.19212 120.606 0.672249C120.558 0.641768 120.558 0.641782 120.509 0.611301C120.172 0.397936 119.737 0.242119 119.35 0.057535C118.546 1.52549 117.469 1.83276 115.14 1.37714C113.732 1.11545 112.326 0.794495 110.866 0.739373C109.504 0.65632 108.09 0.750203 106.818 1.11332C106.377 1.25382 105.937 1.36468 105.545 1.4764C105.254 1.41204 104.963 1.37732 104.818 1.28588C103.857 0.587373 102.689 0.537338 101.513 0.961412C100.534 1.27036 99.6056 1.43203 98.4859 1.41248C97.8531 1.40144 97.2167 1.59781 96.5828 1.64603C96.2415 1.66971 95.8542 1.54439 95.5626 1.50966C95.3254 1.14984 95.8128 1.12869 95.9614 0.983083C96.2586 0.69187 96.2167 0.305818 95.8288 0.210128C95.1991 0.021295 94.5673 -0.0490161 93.9785 0.207467C93.8314 0.264181 93.8278 0.471623 93.7263 0.706972C93.239 0.728106 92.7512 0.778837 92.2638 0.799971C91.0448 0.897253 89.7776 0.964082 88.5586 1.06136C87.9294 0.8429 87.1495 0.888567 86.8035 1.17893C85.7145 2.19733 83.9118 2.25478 82.3044 2.286C80.5996 2.31553 79.1781 2.85388 77.5696 2.94436C77.4236 2.94181 77.2278 2.99765 77.1294 3.05521C76.2439 3.57328 75.1683 3.82128 74.0456 3.97952C72.8737 4.16654 71.6541 4.29344 70.4807 4.56936C70.4719 5.07309 70.4134 5.63526 69.3859 5.91373C68.9458 6.02461 68.5532 6.19559 68.0204 6.03809C67.5362 5.88144 67.0483 5.93221 66.6548 6.16246C66.3596 6.33514 65.967 6.50613 66.2545 6.77791C66.3979 6.92861 66.7858 7.02431 67.0773 7.05904C67.4663 7.09547 67.9054 7.04383 68.2953 7.021C68.7744 7.47396 69.4487 7.90068 68.2177 8.67948C71.3435 8.14124 73.794 7.23554 76.6707 7.01899C77.0606 6.99616 77.4506 6.97334 77.8887 6.98099C77.4967 7.12234 77.3491 7.20869 77.202 7.2654C77.1534 7.26455 77.1534 7.26454 77.1042 7.29332C73.5879 7.88403 70.4507 9.07414 67.0292 9.81471C66.4425 9.95266 65.9506 10.2405 65.3628 10.4377C64.7258 10.6637 64.0894 10.8601 63.4048 11.026C62.4265 11.2757 61.4493 11.4661 60.8057 12.0773C60.3608 12.4548 59.6757 12.6504 58.9015 12.3701C58.8047 12.3388 58.5607 12.3642 58.4137 12.4209C58.2174 12.5064 58.0206 12.6215 58.0185 12.74C58.0165 12.8585 58.2583 12.9517 58.4986 13.1337C58.2003 13.4842 57.7099 13.6831 57.0289 13.6416C55.0352 13.4882 53.4184 14.0528 51.754 14.5573C50.7261 14.8654 49.7945 15.2344 48.7665 15.5425C48.2766 15.7118 47.5905 15.9666 47.2026 15.8709C46.1834 15.6753 45.3989 15.9876 44.5206 16.0908C44.4719 16.09 44.4227 16.1188 44.374 16.1179C43.8867 16.1391 43.3052 15.9807 42.8199 15.8833C42.7754 15.6454 42.7309 15.4075 42.6863 15.1696C42.1017 15.1891 41.5165 15.2381 40.8831 15.2567C40.632 15.6969 40.0924 15.9247 39.3596 16.0601C36.3788 16.6601 33.9723 17.8333 31.5182 18.9465C31.4198 19.004 31.3691 19.1217 31.2692 19.2682C31.4602 19.479 31.6503 19.7491 31.8409 19.9895C30.9543 20.5668 30.5778 19.8193 29.7513 19.7456C29.4075 19.9174 28.9662 20.0875 28.5727 20.3178C28.0802 20.6352 27.5877 20.9527 26.8544 21.1177C26.4148 21.1989 25.973 21.3987 25.6768 21.6307C24.6888 22.4434 23.3159 22.9825 21.7991 23.4007C21.4511 23.8096 21.0545 24.2176 20.6071 24.7433C19.9716 24.8804 19.1405 25.0734 18.3088 25.296C17.575 25.4907 17.0328 25.8665 17.2192 26.344C17.4943 27.327 16.6579 27.8162 15.4824 28.2107C15.0417 28.3512 14.601 28.4917 14.1608 28.6026C13.2225 29.3568 12.2354 30.1102 11.2474 30.9229C11.4887 31.0457 11.7782 31.199 12.0677 31.3522C11.9631 31.7653 11.4256 31.8745 10.888 31.9837C10.829 32.5755 10.4794 33.0733 9.98542 33.4796C9.49139 33.8859 8.80368 34.2296 8.117 34.514C8.24597 35.4944 7.84206 36.3173 6.80636 37.0698C6.26365 37.4753 5.9141 37.9731 5.31961 38.5555C4.55989 37.4456 6.08083 36.7904 6.24083 35.9929C5.80841 35.6593 5.32214 35.6212 4.92805 35.8811C4.63236 36.0834 4.48063 36.4068 4.2331 36.6396C3.68781 37.1933 3.23935 37.7782 2.54905 38.2701C1.71169 38.8186 1.55582 39.379 2.07991 40.0403C2.1752 40.1605 2.22078 40.3391 2.26739 40.4585C1.22392 41.6556 0.909096 42.9542 0.789498 44.2266C0.559095 46.2678 0.620765 48.314 0.585594 50.3289C0.583525 50.4475 0.581973 50.5364 0.579904 50.6549C0.503813 52.2245 1.30549 53.7205 1.86326 55.2419C2.1424 55.9877 2.51942 56.7057 2.84776 57.4228C4.39623 60.7695 7.41335 63.6676 11.0679 66.3101C12.126 67.0696 13.2326 67.8299 14.4377 68.5327C15.6428 69.2354 15.692 69.2066 17.5397 69.3575C17.8763 69.6004 18.3595 69.8164 18.6464 70.1178C19.0296 70.4801 19.4149 70.724 20.1435 70.8256C20.9208 70.9281 21.3522 71.3209 21.7344 71.7426C21.3895 71.9737 21.6795 72.0973 21.9701 72.1913C22.2606 72.2853 22.5527 72.2904 22.8924 72.3556C22.506 72.171 22.1202 71.9568 21.7826 71.7731C22.6112 71.7283 23.0436 72.0619 23.4755 72.4251C24.3004 72.5877 24.3481 72.6478 23.8059 73.0236C24.2383 73.3572 24.7696 73.6036 25.3502 73.8212C25.4952 73.883 25.592 73.9144 25.737 73.9762C26.3175 74.1938 26.9473 74.3826 27.5278 74.6002C28.0596 74.817 28.591 75.0634 29.1725 75.2218C29.8022 75.4106 30.5283 75.6604 31.2093 75.7019C32.3279 75.7807 33.2491 76.0043 34.1181 76.4344C35.0839 76.8959 36.0995 77.2989 37.4138 77.3219C37.9006 77.3303 38.4806 77.5776 38.9156 77.763C39.3988 77.9789 39.8327 78.2236 40.4117 78.5302C40.9964 78.5107 41.6784 78.493 42.0135 78.8249C42.7804 79.52 43.898 79.6581 45.0652 79.7377C44.8721 79.6454 44.6789 79.5531 44.7317 79.3169C44.827 79.4372 44.9218 79.587 45.0657 79.7081C46.1812 79.9647 47.3956 80.1341 48.4111 80.5371C49.4753 80.941 50.8435 80.6685 51.8565 81.2197C52.0015 81.2815 52.3909 81.2883 52.538 81.2316C53.4686 80.9218 53.9507 81.197 54.5271 81.6516C54.959 82.0148 55.496 81.9353 56.2319 81.6221C57.0656 81.281 57.5048 81.2293 58.1806 81.5672C58.6151 81.7823 58.902 82.0837 59.3344 82.4173C60.063 82.5189 60.8403 82.6214 61.6663 82.7247C62.0066 82.7603 62.4426 82.8865 62.5897 82.8298C63.6689 82.3743 64.5865 82.8053 65.5565 83.0297C66.5751 83.255 67.6456 83.3033 68.7196 83.1443C70.9029 83.5973 73.0934 83.6356 75.3342 83.5857C76.3052 83.7509 77.2301 83.7671 78.1586 83.5758C79.6661 83.691 81.1731 83.8358 82.6811 83.9215C83.1187 83.9587 83.7536 83.8513 84.0001 83.6777C84.5438 83.213 85.3237 83.1673 86.1513 83.1818C86.8815 83.1945 87.5619 83.2657 88.1942 83.3064C89.3651 83.1786 90.5396 82.8434 91.8001 83.1618C94.9694 82.9207 98.1801 83.0953 101.351 82.7653C102.619 82.6393 103.982 82.6631 105.249 82.6259C105.639 82.6031 105.782 82.7834 105.967 83.3498C107.137 83.2813 108.355 83.2136 109.622 83.1468L109.339 82.6084C111.786 81.9101 114.413 82.0449 117.433 82.0086C115.867 82.4555 114.503 82.5207 113.184 82.7348C114.64 82.9973 116.056 82.7849 117.518 82.7215C118.639 82.6818 119.762 82.4939 120.932 82.4254C124.784 82.1073 128.542 81.6394 132.301 81.0826C133.912 80.8439 135.521 80.6942 137.131 80.5148C141.814 80.0334 146.406 79.1947 150.901 78.3247C153.491 77.8364 156.08 77.348 158.621 76.8292C159.843 76.5838 161.018 76.219 162.24 75.9143C167.182 74.5778 172.075 73.2108 176.826 71.6339C181.429 70.1137 185.698 68.2912 189.822 66.3477C190.067 66.2334 190.216 66.0582 190.414 65.8838C190.999 65.8644 191.248 65.5427 191.398 65.3082C191.6 64.8967 192.475 64.9713 192.625 64.7368C192.925 64.2974 193.315 64.2746 193.948 64.3153C194.531 64.3551 194.732 64.0029 194.979 63.7997C195.372 63.6287 195.909 63.5196 196.108 63.3156C197.394 62.1228 199.355 61.3863 201.075 60.4679C205.253 58.2585 209.624 56.1414 213.271 53.5968C213.962 53.1049 214.604 52.5826 215.294 52.0908C216.676 51.0479 216.988 49.8677 216.622 48.5572C216.485 48.0213 216.154 47.4819 215.919 46.9443C215.684 46.466 215.351 46.0156 215.409 45.4831C215.465 45.0987 215.18 44.6788 214.845 44.3469C214.033 43.4139 213.662 42.37 212.41 41.5479C211.929 41.2431 211.936 40.7986 212.138 40.4168C212.239 40.2111 212.339 40.035 212.488 39.8598C213.481 38.81 213.551 37.5664 214.155 36.4506C214.809 35.2171 214.149 33.9904 213.684 32.767C212.891 30.7673 211.561 28.8471 210.377 26.9294C209.997 26.3597 209.277 25.7839 210.068 25.0863C210.217 24.9407 210.076 24.6123 209.935 24.3727C209.557 23.714 208.932 23.1992 208.014 22.7979C207.966 22.7674 207.918 22.7369 207.87 22.7064C206.227 21.9664 204.827 21.2899 203.576 20.4381ZM68.5316 82.7556C68.6771 82.7878 68.8226 82.82 68.6735 82.9952C68.674 82.9656 68.674 82.9656 68.5316 82.7556ZM78.7469 83.3489C78.5517 83.3751 78.3564 83.4014 78.0675 83.2185C78.214 83.1914 78.4098 83.1355 78.7469 83.3489ZM77.8246 83.1846C77.5325 83.1795 77.1902 83.2625 77.0022 82.8739C77.3896 82.9992 77.6314 83.0923 77.8246 83.1846ZM75.2881 83.4367C74.9008 83.3114 74.4647 83.1853 73.69 82.9346C74.4709 82.8297 74.8609 82.8068 75.2027 82.7535C75.1985 82.9906 75.2431 83.2285 75.2881 83.4367ZM98.8585 80.4988C98.2702 80.7257 97.684 80.834 96.9098 80.5537C97.5985 80.1508 98.2277 80.3692 98.8585 80.4988ZM187.551 15.0899C187.747 15.0341 187.992 14.9494 188.433 14.8089C188.432 14.8386 188.432 14.8386 188.384 14.8377C188.234 15.0129 188.185 15.0713 188.136 15.0705L188.087 15.0696C187.941 15.0967 187.746 15.0933 187.551 15.0899ZM79.6013 6.50697C79.7975 6.42148 79.9943 6.30638 80.2387 6.25136C80.2387 6.25136 80.2387 6.25136 80.5277 6.43425C80.2833 6.48926 80.0383 6.57388 79.6013 6.50697ZM82.4339 6.02292C82.6292 5.99669 82.8726 6.00092 83.4578 5.95185C82.9684 6.09151 82.7239 6.14654 82.4339 6.02292ZM130.048 6.49832C129.998 6.55673 129.948 6.64479 129.849 6.76161C129.654 6.72858 129.461 6.66591 129.267 6.63288C129.267 6.63288 129.267 6.63289 129.416 6.42803C129.66 6.43227 129.854 6.46529 130.048 6.49832ZM111.396 6.61735C110.859 6.6969 110.371 6.74769 109.932 6.79931C110.326 6.56905 110.577 6.15844 111.396 6.61735ZM109.884 6.79846C109.689 6.79506 109.446 6.76115 108.914 6.57402C108.914 6.57402 108.914 6.57405 108.964 6.45637C109.159 6.45977 109.403 6.43439 109.548 6.4962C109.693 6.55801 109.788 6.67823 109.884 6.79846ZM99.1685 4.15128C98.6326 4.17156 98.1955 4.10465 98.2027 3.68982C98.9433 3.10994 99.865 3.30387 100.788 3.43854C100.392 3.78732 99.9479 4.13524 99.1685 4.15128ZM126.679 4.21651C128.099 3.79668 128.099 3.76705 128.724 4.2522C128.091 4.27078 127.361 4.2284 126.679 4.21651ZM124.054 3.96322C123.859 3.98945 123.664 3.98605 123.47 3.98265C122.592 4.02662 121.764 4.04182 120.888 4.02653C120.499 4.01973 120.062 3.95279 119.672 3.946C118.991 3.9341 118.654 3.69113 118.367 3.38972C120.073 3.2713 121.675 3.59563 123.277 3.86072C123.52 3.8946 123.763 3.92849 124.054 3.96322ZM115.632 3.87547C116.229 3.14489 117.297 3.31176 118.318 3.38887C117.722 4.08982 116.653 3.98221 115.632 3.87547ZM115.583 3.87462C112.712 3.79486 109.882 4.13079 107.014 3.84361C106.625 3.80718 106.185 3.88844 105.795 3.91128C104.674 3.98063 102.292 3.73156 100.886 3.41061C103.274 3.27446 105.709 3.25768 108.144 3.27053C110.091 3.27489 112.083 3.51715 113.988 3.19471C114.866 3.09148 115.397 3.39713 115.583 3.87462ZM84.3557 4.72266C84.206 4.92752 83.523 5.00453 83.0419 4.67009C83.582 4.41275 84.1667 4.39332 84.3557 4.72266ZM105.492 1.77186C106.469 1.55181 107.442 1.62809 108.363 1.85166C109.43 2.1074 110.402 2.21326 111.43 1.87553C111.725 1.7621 112.309 1.74268 112.6 1.83667C113.616 2.21009 114.689 2.08061 115.712 2.09846C117.172 2.12395 118.633 2.11982 120.093 2.14531C120.434 2.15126 120.921 2.15975 120.962 2.60507C119.891 2.58638 118.819 2.5973 117.797 2.57946C116.337 2.55397 114.829 2.46838 113.368 2.47252C110.348 2.50873 107.327 2.60419 104.259 2.63956C101.629 2.68257 98.9987 2.72559 96.4171 2.76945C96.0277 2.76265 95.6377 2.78548 95.298 2.72027C95.0552 2.6864 94.862 2.5941 94.6699 2.44255C94.7672 2.44425 94.9138 2.41717 95.0111 2.41887C97.9355 2.26243 100.816 1.80883 103.784 1.97919C104.368 1.95975 104.954 1.88104 105.492 1.77186ZM88.5586 1.06136C88.5586 1.06136 88.5586 1.06135 88.7491 1.30179C88.3592 1.32463 88.3607 1.23575 88.5586 1.06136ZM90.0132 1.41279C91.1349 1.31381 92.2623 0.888875 93.8117 1.39016C93.8604 1.39101 93.8599 1.42063 93.9086 1.42148C93.8599 1.42063 93.8599 1.42063 93.8599 1.42063C92.3027 1.36381 91.1764 1.7295 90.0132 1.41279ZM88.1402 2.71391C88.9201 2.66824 89.7952 2.7428 90.5285 2.57776C91.848 2.30439 93.2116 2.29854 94.5735 2.3816C92.3229 2.9944 89.889 2.9519 87.5478 3.1778C87.4017 3.17525 87.2091 3.05331 87.2137 2.78663C87.5063 2.7621 87.8476 2.73844 88.1402 2.71391ZM83.0662 3.27741C83.8026 2.93458 84.5809 2.97782 85.4064 3.11079C84.1325 3.56279 84.1325 3.56278 83.0662 3.27741ZM89.0449 3.88567C90.3121 3.81886 91.2867 3.77658 92.31 3.73516C90.1107 4.20065 90.1107 4.20067 89.0449 3.88567ZM75.2751 6.07579C75.9597 5.9099 76.6437 5.77365 77.3284 5.60776C77.3284 5.60776 77.3284 5.60774 77.4728 5.69919C77.2719 6.05136 76.6893 5.95229 76.2978 6.06401C75.9555 6.14696 75.6137 6.20025 75.2714 6.28319C75.1736 6.31113 75.027 6.33823 74.9296 6.33653C74.5392 6.389 74.1974 6.4423 73.8069 6.49477C74.2968 6.32548 74.7862 6.18582 75.2751 6.07579ZM70.9623 7.66035C70.719 7.6561 70.3808 7.50199 70.2368 7.38092C70.1405 7.31996 70.2907 7.08548 70.3896 6.99829C70.9794 6.68254 71.6138 6.60468 72.2896 6.94252C72.0395 7.32348 71.693 7.64346 70.9623 7.66035ZM76.1943 9.20405C75.2161 9.45374 74.3326 9.85328 73.212 9.893C74.1954 9.347 74.6356 9.23612 76.1943 9.20405ZM63.2349 12.3865C64.2629 12.0784 65.2908 11.7703 66.3177 11.5214C67.3933 11.2734 68.2794 10.7257 69.4456 10.8647C67.1898 11.7738 64.8874 12.5635 62.4882 13.3219C61.8518 13.5183 61.2697 13.3896 60.6881 13.2312C61.5208 12.9493 62.3536 12.6675 63.2349 12.3865ZM50.9151 15.1947C51.2585 15.0525 51.5034 14.9678 51.7483 14.8832C51.7483 14.8832 51.7483 14.8832 51.94 15.0644C51.7924 15.1507 51.6443 15.2667 51.4485 15.3226C51.3993 15.3514 51.2543 15.2895 50.9151 15.1947ZM60.5411 13.2879C59.9916 14.0786 59.1543 14.6271 57.7379 14.8692C55.9798 15.1645 54.4604 15.7308 53.0845 16.4478C52.2978 16.8787 51.417 17.1301 49.9095 17.0148C50.5972 16.6712 50.9907 16.4409 51.432 16.2708C54.4682 15.2864 57.5049 14.2723 60.5411 13.2879ZM49.8835 15.7102C48.4553 16.6338 47.6216 16.9749 45.8634 17.2703C45.7169 17.2973 45.5703 17.3244 45.4238 17.3515C45.5222 17.294 45.6206 17.2364 45.7195 17.1492C46.851 16.4872 48.0778 15.9455 49.8835 15.7102ZM41.748 15.9239C42.1384 15.8714 42.431 15.8469 42.6749 15.8215C42.4782 15.9367 42.329 16.1119 41.748 15.9239ZM38.9086 16.7932C39.2509 16.7102 39.4958 16.6256 39.7402 16.5706C39.7402 16.5706 39.7402 16.5706 39.8827 16.7805C39.7351 16.8669 39.5388 16.9524 39.2949 16.9778C39.2457 17.0066 39.1017 16.8855 38.9086 16.7932ZM44.0162 17.0898C44.4528 17.1864 44.8893 17.2829 45.3259 17.3794C44.5351 18.0474 43.2669 18.1734 41.9438 18.6542C42.0494 18.1818 42.0059 17.8847 42.1566 17.6205C42.4098 17.0618 43.0458 16.895 44.0162 17.0898ZM40.1105 17.6737C40.3524 17.7668 40.5461 17.8295 40.6424 17.8905C40.7387 17.9515 40.7858 18.0412 40.9288 18.2215C40.3384 18.5669 39.7491 18.853 38.629 18.8631C39.0722 18.5745 39.3187 18.4009 39.5658 18.1977C39.7636 18.0233 39.9127 17.8481 40.1105 17.6737ZM34.2458 18.9051C35.0837 18.327 36.108 18.2263 37.18 18.1857C36.4446 18.4693 35.758 18.7537 34.975 18.9772C34.8279 19.0339 34.586 18.9407 34.2458 18.9051ZM41.8252 19.8674C42.9039 19.4416 43.9836 18.9566 45.1095 18.6205C45.648 18.4521 46.139 18.2236 46.6786 17.9959C47.2177 17.7978 47.8054 17.6006 48.5356 17.6133C48.4351 17.7894 48.3844 17.9071 48.2865 17.935C47.8945 18.0763 47.5025 18.2177 47.1105 18.3591C45.5911 18.9253 44.023 19.4908 42.5036 20.0571C42.2095 20.1705 41.8687 20.1645 41.8252 19.8674ZM34.4556 20.8354C34.2671 20.4764 34.8108 20.0117 35.2966 20.0795C35.3939 20.0812 35.5861 20.2327 35.585 20.292C35.4348 20.5265 35.2852 20.7313 35.0868 20.9354C34.989 20.9633 34.6498 20.8684 34.4556 20.8354ZM37.1412 20.4081C36.9931 20.524 36.8937 20.6408 36.7461 20.7272C36.6969 20.756 36.5037 20.6637 36.31 20.6011C36.4576 20.5147 36.6057 20.3987 37.1412 20.4081ZM40.1541 20.757C39.4669 21.0711 39.0682 21.5977 37.7057 21.5442C38.5902 21.0854 39.2287 20.7705 40.1541 20.757ZM32.5949 21.4254C32.5949 21.4254 32.5949 21.4254 32.6912 21.4864C32.3966 21.6294 32.1019 21.7725 31.7586 21.9147L32.5949 21.4254ZM36.4773 22.1749C36.1827 22.3179 35.9362 22.4915 35.4489 22.5126C35.6954 22.3391 35.99 22.196 36.4773 22.1749ZM30.9585 23.1159C30.3687 23.4317 29.9264 23.6611 29.5334 23.8617C29.6861 23.4791 29.9347 23.187 30.9585 23.1159ZM26.099 25.3431C25.9995 25.4599 25.9488 25.5775 25.608 25.5716C25.7551 25.5149 25.9514 25.4294 26.099 25.3431ZM21.9194 27.671C21.4202 28.3736 20.4414 28.6529 19.5057 29.259C19.9608 28.2889 19.9608 28.2889 21.9194 27.671ZM31.2755 71.9091C31.7633 71.8584 32.3526 71.5722 32.5852 72.1987C32.0999 72.1014 31.6634 72.0048 31.2755 71.9091ZM37.5774 73.5308C37.7224 73.5926 37.916 73.6553 37.8151 73.861C37.6214 73.7983 37.4769 73.7069 37.5774 73.5308ZM27.1073 73.5851C27.7406 73.5665 27.9793 73.8375 28.0229 74.1347C28.0213 74.2235 27.678 74.3657 27.4817 74.4512C27.0964 74.2074 26.7598 73.9644 27.1073 73.5851ZM42.7689 74.5995C42.9626 74.6622 43.1558 74.7545 43.3003 74.8459C43.3484 74.8764 43.1516 74.9915 43.0527 75.0787C42.859 75.016 42.6162 74.9822 42.4225 74.9195C42.4225 74.9195 42.4225 74.9195 42.3293 74.6808C42.4763 74.6241 42.6721 74.5682 42.7689 74.5995ZM56.9744 75.3514C57.2675 75.2972 57.5606 75.243 57.8537 75.1889C57.8982 75.4268 57.9428 75.6647 57.9873 75.9026C57.6496 75.7188 57.312 75.5351 56.9744 75.3514ZM56.0914 75.7213C56.2851 75.7839 56.4777 75.9059 56.7196 75.999C56.428 75.9643 56.1846 75.96 56.0914 75.7213ZM57.5911 76.281C57.3483 76.2471 57.1069 76.1243 56.9138 76.032C57.3037 76.0092 57.6937 75.9864 58.0349 75.9627C57.9837 76.11 58.0769 76.3487 57.5911 76.281ZM48.3846 76.4759C48.2396 76.4141 48.1935 76.2651 48.0501 76.1144C49.8036 76.0858 51.2106 76.3771 52.9517 77.0596C50.5172 77.0467 49.6425 76.9425 48.3846 76.4759ZM73.8949 76.773C74.4304 76.7824 75.0146 76.7926 75.5495 76.8315C75.6469 76.8332 75.8395 76.9552 75.838 77.0441C75.8369 77.1033 75.7375 77.2202 75.5909 77.2472C74.9545 77.4436 74.3232 77.3437 73.7919 77.0973C73.7914 77.1269 73.7914 77.1269 73.8949 76.773ZM55.6233 77.4322C57.0857 77.3392 58.4964 77.4231 59.803 77.8905C58.9247 77.9937 58.0945 78.1274 57.3136 78.2324C56.7341 77.9555 56.1541 77.7083 55.6233 77.4322ZM59.9485 77.9227C60.6813 77.7873 61.413 77.7111 62.2385 77.8441C63.6952 78.077 65.154 78.1914 66.6118 78.365C67.0489 78.432 67.4849 78.5581 67.9215 78.6547C66.357 79.0127 64.6646 78.331 63.0981 78.8076C62.0805 78.5231 61.0142 78.2377 59.9485 77.9227ZM134.314 80.1396C133.972 80.1929 133.63 80.2758 133.288 80.3291C132.995 80.3537 132.654 80.3774 132.659 80.1107C132.66 80.0514 133.003 79.9389 133.197 79.9423C133.49 79.9177 133.879 79.9542 134.314 80.1396ZM121.186 78.9916C121.186 78.9916 120.209 79.182 120.162 79.0923C120.162 79.0923 121.188 78.9027 121.186 78.9916ZM138.285 75.8221C135.99 76.1378 133.648 76.423 131.496 76.9782C131.3 77.0341 131.008 77.029 130.814 76.9663C130.621 76.9036 130.575 76.7546 130.334 76.5726C133.656 75.9488 136.928 75.4131 140.342 75.1171C139.261 75.691 139.261 75.691 138.285 75.8221ZM123.295 75.353L124.125 75.2193L124.172 75.309C124.172 75.309 123.342 75.4724 123.295 75.353ZM133.791 71.0309C132.081 71.3568 130.565 71.7156 128.955 71.895C126.906 72.126 124.762 72.2368 122.666 72.3484C122.52 72.3459 122.33 72.0758 122.137 71.9538C122.333 71.8683 122.531 71.6939 122.677 71.7261C123.649 71.832 124.621 71.9083 125.503 71.5976C127.511 70.9509 129.661 70.5439 131.997 70.5847C132.387 70.5915 132.779 70.4501 133.169 70.4273C133.315 70.4002 133.46 70.462 133.606 70.4942C133.7 70.644 133.747 70.7634 133.791 71.0309ZM150.105 68.1442C146.63 69.1506 142.872 69.6778 139.208 70.3548C137.987 70.5706 137.305 70.5884 135.701 70.3826C136.441 69.862 137.415 69.8493 138.389 69.8367C138.973 69.8469 139.461 69.7961 140 69.598C141.226 69.1155 142.595 68.8134 144.149 69.0184C144.975 69.1217 145.757 68.9575 146.444 68.6731C146.983 68.4454 147.524 68.1881 148.109 68.1094C149.672 67.8402 151.282 67.6905 152.841 67.6288C151.962 67.7913 150.986 67.8928 150.105 68.1442ZM177.968 59.205C174.487 60.5669 170.814 61.7774 167.045 62.8675C164.696 63.5379 162.251 64.1473 159.806 64.7271C156.922 65.3881 153.941 65.9585 151.009 66.5594C146.465 67.4878 141.871 68.4155 137.137 69.0442C134.696 69.3869 132.067 69.3706 129.569 70.1866C126.106 70.5411 122.643 70.8956 119.13 71.2493C117.423 71.427 115.762 71.724 114.057 71.7832C111.572 71.8584 109.182 72.0834 106.837 72.5463C106.642 72.5726 106.446 72.5988 106.203 72.6242C106.637 72.8689 107.122 72.9663 107.707 72.9172C108.926 72.8199 110.145 72.7523 111.364 72.655C112.144 72.5797 112.776 72.65 113.302 73.1631C112.765 73.2426 112.325 73.3535 111.838 73.3746C108.085 73.5759 104.332 73.7771 100.579 73.9784C100.043 73.9987 99.3637 73.8683 98.6268 74.2407C99.356 74.3127 99.7444 74.3788 100.134 74.3856C103.836 74.302 107.49 74.2176 111.192 74.1044C111.826 74.0858 112.461 73.9487 113.143 73.9013C114.216 73.8015 115.242 73.6119 116.313 73.6602C118.746 73.762 121.088 73.4768 123.38 73.2797C126.111 73.0606 128.891 72.8127 131.529 72.2956C133.044 71.996 133.383 72.0612 135.279 72.2722C134.101 72.8148 132.687 72.879 131.37 73.0635C130.149 73.22 128.979 73.3478 127.759 73.5043C124.782 73.8673 121.853 74.2608 118.829 74.5637C116.439 74.8184 114.001 74.9833 111.563 75.1779C111.368 75.2041 111.22 75.2905 111.073 75.3472C111.849 75.5089 112.626 75.641 113.353 75.8612C113.692 75.956 114.078 76.1406 113.731 76.4903C113.049 76.5376 112.318 76.5841 111.635 76.6611C109.637 76.7448 107.687 76.859 105.104 76.9621C106.073 77.2458 106.461 77.3415 106.946 77.4685C106.845 77.6446 106.745 77.8207 106.645 77.9671C104.896 77.7291 103.287 77.8492 101.816 78.446C101.57 78.5603 101.229 78.584 100.887 78.6373C101.665 78.7101 102.491 78.8135 103.27 78.8271C107.555 78.813 111.751 78.3527 115.992 78.1006C116.43 78.0786 117.115 77.9424 117.264 77.7375C117.812 77.0654 118.687 77.1103 119.561 77.2737C120.774 77.5024 121.941 77.6117 123.209 77.4856C124.087 77.412 125.011 77.4874 125.982 77.6526C124.176 77.8878 122.37 78.1527 120.564 78.3879C120.271 78.4421 119.881 78.4649 119.59 78.4006C118.765 78.238 117.982 78.4318 117.202 78.5071C114.324 78.7829 111.398 79.0579 108.473 79.2736C105.888 79.4656 103.257 79.5679 100.626 79.6701C98.4333 79.7504 96.2391 79.9196 94.003 79.7027C93.0796 79.5977 92.0538 79.7873 91.0792 79.8295C90.4458 79.8481 89.7617 79.9843 89.1305 79.8844C87.6737 79.6515 86.2113 79.7446 84.7509 79.7191C83.0958 79.6902 81.4407 79.6613 79.8359 79.5443C78.2797 79.4283 76.7225 79.3715 75.1617 79.5221C74.7717 79.5449 74.2839 79.5957 73.9447 79.5008C72.7816 79.1841 71.5144 79.2509 70.2995 79.1111C69.5217 79.0383 68.6926 79.1127 68.066 78.7461C69.429 78.7699 70.793 78.7344 72.1058 78.8462C77.0659 79.2292 82.0332 79.1974 86.9979 79.3137C88.3122 79.3366 89.5794 79.2698 90.8953 79.2039C91.1879 79.1793 91.482 79.0659 91.873 78.9838C91.8782 78.6875 91.8828 78.4208 91.888 78.1245C90.2806 78.1557 88.7218 78.1878 87.1713 77.7458C86.5416 77.5569 85.5173 77.6576 84.784 77.8227C84.002 77.9869 83.3692 77.9758 82.6421 77.7853C82.1087 77.6574 81.624 77.5304 80.9456 77.3407C82.9994 76.843 85.0357 77.3528 86.9414 76.9711C87.1894 76.7087 87.4375 76.4463 87.7855 76.0374C85.2547 75.9636 83.016 75.8948 80.7286 75.8253C77.8576 75.7159 75.0358 75.5777 72.1653 75.4387C72.0192 75.4361 71.8255 75.3735 71.6795 75.3709C70.5614 75.2625 69.3947 75.1532 68.2761 75.0744C68.1788 75.0727 68.0799 75.1599 67.8836 75.2454C68.3196 75.3716 68.7075 75.4672 69.3372 75.6561C68.8473 75.8254 68.6014 75.9693 68.3093 75.9642C67.3834 76.0073 66.4093 76.0199 65.4347 76.0622C65.5294 76.212 65.8681 76.3365 65.4751 76.5372C64.6962 76.5236 63.8681 76.5387 63.0903 76.4659C62.0209 76.3583 60.9023 76.2795 60.1349 75.614C59.6077 75.1306 58.6843 75.0255 57.7558 75.2168C57.3674 75.1508 57.0743 75.2049 56.8278 75.3784C55.9045 75.2734 54.9319 75.1971 54.0086 75.0921L53.4907 74.0753C53.049 74.2751 52.6564 74.4461 52.1655 74.6746C50.7652 73.9981 49.2644 73.4977 47.513 73.4078C47.1236 73.401 46.7362 73.2757 46.3981 73.1216C45.3825 72.7185 44.2645 72.6101 42.8025 72.6735C42.7984 72.9105 43.5762 72.9834 43.0832 73.3305C42.1594 73.2551 41.1868 73.1788 40.7109 72.5481C40.6099 72.7538 40.3158 72.8672 40.0253 72.7732C39.1542 72.4616 38.1356 72.2363 37.5115 71.7216C37.2687 71.6877 37.0745 71.6547 36.8316 71.6208C36.1527 71.4607 35.4738 71.3007 34.844 71.1119C33.972 70.8595 33.6203 71.4758 32.8902 71.4631C32.6468 71.4588 32.3557 71.3945 32.2087 71.4512C31.8166 71.5925 31.5209 71.7949 31.1771 71.9667C30.8389 71.8126 30.4029 71.6864 30.2605 71.4765C29.8809 70.9067 29.204 70.6281 28.4308 70.2886C26.9813 69.6408 25.5329 68.9338 24.9684 67.7976C24.9212 67.7079 24.581 67.6723 24.3387 67.6088C24.334 67.8755 24.3304 68.0829 24.3257 68.3496C23.986 68.2844 23.7431 68.2505 23.55 68.1582C20.3102 66.8568 17.1202 65.4969 14.2263 63.9051C13.3102 63.3852 12.492 62.8374 11.6743 62.26C10.7126 61.5615 10.8172 61.1484 12.0942 60.5186C12.1926 60.461 12.3873 60.4644 12.6804 60.4102C13.2112 60.6863 14.2827 60.6753 14.4676 61.2417C14.6535 61.7488 15.2827 61.9673 15.9119 62.1858C16.5411 62.4042 17.219 62.6235 17.8482 62.842C18.5743 63.0918 19.2516 63.3407 19.9771 63.6202C20.5577 63.8378 21.1874 64.0266 21.8176 64.1858C22.5447 64.3763 23.2728 64.5076 24.0512 64.5509C24.5861 64.5898 25.118 64.8066 25.6509 64.9641C26.0869 65.0902 26.569 65.3654 26.959 65.3426C28.568 65.2225 29.7746 65.8364 31.1319 66.1861C32.3924 66.5045 33.8005 66.7366 34.5648 67.5798C34.6601 67.7 34.9506 67.794 35.1448 67.827C37.1857 68.0701 38.6813 68.8669 40.2261 69.6349C41.2504 69.5342 42.2261 69.4326 43.1536 69.3006C43.5927 69.249 43.7362 69.3997 43.8791 69.5801C43.8284 69.6977 43.7279 69.8738 43.7761 69.9043C44.8413 70.2489 45.9552 70.5944 47.0697 70.9103C48.4751 71.2905 49.8796 71.73 51.385 71.9637C53.6667 72.3592 55.9453 72.9325 58.3803 72.9158C57.6066 72.6059 56.8329 72.296 56.0587 72.0157C56.0649 71.6601 56.0711 71.3045 56.0773 70.949C55.1555 70.755 54.285 70.4138 53.4564 70.4586C52.4331 70.5 51.8039 70.2816 50.981 70.0004C50.3037 69.7515 49.3788 69.7354 48.6025 69.5736C47.7289 69.4102 46.9055 69.1587 46.081 68.9664C44.8687 68.6785 44.82 68.6777 43.8563 68.0977C45.1209 68.179 46.2405 68.1986 47.3581 68.3366C50.7589 68.7813 54.214 68.9009 57.6733 68.7834C63.666 68.5916 69.6592 68.3702 75.6524 68.1488C80.7688 67.9417 85.8309 68.0597 90.9396 68.2971C94.5398 68.4785 98.1379 68.7784 101.738 68.9598C112.197 69.5277 122.431 69.0543 132.446 67.2135C140.701 65.7274 148.955 64.2709 157.21 62.8144C160.19 62.2736 163.217 61.793 166.149 61.2217C171.035 60.2696 175.969 59.3183 180.381 57.6762C180.723 57.5636 181.162 57.5416 181.552 57.4891C180.47 58.1223 179.291 58.7242 177.968 59.205ZM117.157 72.7265C117.008 72.8721 116.714 73.0151 116.469 73.0701C116.03 73.1514 115.542 73.1725 114.908 73.2207C114.968 72.5697 115.362 72.3098 116.094 72.2633C116.533 72.2117 117.305 72.5809 117.157 72.7265ZM121.301 72.4431C120.273 72.7216 119.687 72.8299 118.426 72.5708C119.598 72.3838 120.184 72.2458 121.301 72.4431ZM109.709 78.1688C109.175 78.1002 108.591 78.0604 108.057 77.9918C108.643 77.8834 109.229 77.7751 109.709 78.1688ZM110.782 78.069C110.441 78.0927 110.148 78.1468 109.806 78.1705C110.1 78.0867 110.346 77.9725 110.782 78.069ZM70.939 75.9508C71.9674 75.6131 72.5951 75.9204 73.1244 76.2853C72.4449 76.1549 71.6127 76.4072 70.939 75.9508ZM75.609 76.2101C74.5371 76.2507 73.8545 76.2981 73.1725 76.3158C73.8095 76.0898 74.448 75.7749 75.609 76.2101ZM77.1186 76.2069C78.8757 75.9708 80.3811 76.2045 82.2796 76.2377C80.4687 76.7692 79.203 76.7471 77.1186 76.2069ZM85.4888 76.5012C84.6571 76.7238 84.0724 76.7432 83.3951 76.4943C83.9347 76.2665 84.5685 76.2183 85.4888 76.5012ZM44.1722 69.5259C44.3669 69.5293 44.6103 69.5336 44.7527 69.7435L44.1722 69.5259ZM52.573 70.8582C53.5398 71.2604 54.0235 71.4466 54.7004 71.7252C53.1416 71.7573 53.1416 71.7573 52.573 70.8582ZM173.04 56.9553C172.796 56.9806 172.552 57.0356 172.114 56.9984C172.114 56.9984 172.114 56.9984 172.312 56.824C172.556 56.7986 172.799 56.8325 173.04 56.9553ZM168.214 57.2563C167.384 57.4197 166.552 57.6423 165.769 57.8954C164.692 58.2026 164.691 58.2322 162.937 58.2906C165.043 57.6456 166.904 57.026 168.812 56.4961C169.399 56.3285 170.129 56.3413 170.861 56.2948C170.075 56.6664 169.241 57.0371 168.214 57.2563ZM179.262 54.7816C179.164 54.8391 179.066 54.8671 178.823 54.8332C178.921 54.8053 179.019 54.7477 179.262 54.7816ZM184.505 52.9168C183.671 53.258 183.132 53.456 182.642 53.6253C182.75 53.0344 183.289 52.866 184.505 52.9168ZM196.934 46.6722C196.838 46.5816 196.791 46.4919 196.744 46.3725C196.938 46.4352 197.082 46.5266 196.934 46.6722ZM203.175 40.5864C203.411 41.0055 203.161 41.3864 202.766 41.7056C202.568 41.88 202.371 42.0247 202.174 42.1695C201.729 42.5174 201.091 42.8027 200.793 43.1828C200.293 43.8854 199.461 44.1377 198.292 44.1765C198.146 44.174 198.047 44.2908 197.899 44.3771C197.992 44.6455 198.084 44.9139 198.224 45.272C197.638 45.3804 197.052 45.459 196.563 45.5691C196.026 45.6783 196.07 45.9458 196.647 46.3412C195.763 46.7703 194.929 47.1707 194.045 47.5999C193.947 47.6278 193.992 47.8065 194.04 47.8666C194.088 47.9267 194.282 47.9598 194.428 47.9623C194.671 47.9962 194.968 47.6753 195.254 48.0656C193.731 48.8393 192.64 49.9763 190.105 50.1099C190.354 49.8178 190.407 49.552 190.701 49.4385C191.045 49.2667 191.582 49.1871 191.975 49.0162C192.465 48.8172 192.273 48.636 191.789 48.4794C191.004 48.8214 190.219 49.1634 189.337 49.5036C189.33 49.8592 189.325 50.1852 189.221 50.539C189.169 50.716 188.875 50.8294 188.678 50.9742C188.039 51.3187 187.399 51.6928 186.712 52.0069C186.074 52.3218 185.339 52.5461 184.466 52.353C183.836 52.2234 183.394 52.4232 182.903 52.6221C180.797 53.356 178.786 54.1804 176.631 54.8838C174.917 55.4467 173.014 55.6803 170.91 56.266C170.92 55.703 171.749 55.5989 172.338 55.3721C173.123 55.0301 174.004 54.7787 174.837 54.4672C176.455 53.8137 177.93 53.0095 179.883 52.688C180.127 52.6626 180.372 52.5779 180.52 52.4916C181.7 51.8305 182.785 51.0491 184.493 50.8418C184.639 50.8147 184.74 50.609 184.84 50.4922C184.988 50.3466 185.138 50.1417 185.383 50.0274C186.759 49.3401 188.087 48.5926 189.75 48.1474C190.288 48.0086 190.778 47.8097 191.172 47.5794C192.648 46.716 194.123 45.8822 195.503 44.9578C196.242 44.4371 196.837 43.8547 198.01 43.6084C198.205 43.5526 198.451 43.4087 198.502 43.291C198.713 42.3758 199.989 41.7757 200.443 40.924C200.645 40.5126 200.944 40.0732 201.678 39.8785C202.938 40.2562 203.034 40.2875 203.175 40.5864ZM187.366 48.0465C188.3 47.5293 188.841 47.2127 189.431 46.8969C189.226 47.4862 188.684 47.8324 187.366 48.0465ZM188.982 33.5511C190.77 34.3529 192.458 35.2716 194.147 36.1606C195.257 36.7432 196.317 37.3841 197.425 38.0259C197.108 39.4727 195.871 40.5775 194.587 41.6517C193.697 42.3772 192.713 43.0121 191.727 43.7062C191.283 43.9949 190.84 44.2836 190.88 44.7585C191.078 44.5841 191.324 44.4698 191.708 44.7433C191.56 44.8889 191.411 45.0642 191.214 45.1793C189.488 46.3941 187.474 47.3963 185.461 48.3986C184.331 48.9717 183.249 49.5456 182.119 50.1187C181.529 50.4344 182.306 50.5962 182.301 50.8925C181.271 51.3191 180.192 51.7449 179.015 52.1986C177.996 52.0326 177.213 52.2264 176.764 52.841C176.665 52.9578 176.613 53.1348 176.466 53.1915C173.721 54.2402 170.927 55.2881 167.895 56.0355C166.672 56.3402 165.403 56.5255 164.467 57.1316C164.074 57.3619 163.487 57.4702 162.95 57.5794C160.215 58.0652 157.479 58.5806 154.838 59.2458C154.25 59.4134 153.568 59.4608 152.982 59.5691C150.637 59.9728 148.294 60.2876 145.997 60.781C141.745 61.6849 137.542 62.5897 133.101 63.1346C133.003 63.1625 132.904 63.2498 132.756 63.3657L133.132 64.1429C131.957 64.5374 130.838 64.4882 129.72 64.3205C129.332 64.2841 128.799 64.0969 128.554 64.1816C127.524 64.6082 126.405 64.5887 125.284 64.6284C124.31 64.641 123.38 64.8915 122.404 65.0227C122.306 65.0506 122.256 65.1683 122.205 65.2564C122.545 65.3512 122.932 65.4765 123.417 65.6035C122.534 65.9735 121.508 66.1334 120.831 65.8844C119.96 65.5728 119.276 65.7091 118.496 65.7251C114.891 65.84 111.375 66.4011 107.772 66.4271C104.459 66.4879 101.197 66.4606 97.9384 66.2555C93.7551 66.0046 89.5719 65.7538 85.3881 65.5326C84.1716 65.4817 82.9521 65.6086 81.7346 65.617C81.2405 66.0233 80.5621 65.8336 79.9298 65.793C78.5674 65.7395 77.21 65.3898 75.7947 65.5726C74.7269 65.3761 73.657 65.2981 72.5338 65.486C70.1557 65.0296 67.7663 65.225 65.3744 65.5686C63.378 65.5633 61.334 65.498 59.3371 65.5224C58.1196 65.5308 56.8504 65.7161 55.6339 65.6653C52.0327 65.5431 48.4222 65.9544 44.8241 65.6545C43.6082 65.5739 42.3912 65.5527 41.1773 65.3537C40.4487 65.252 39.7211 65.0911 38.9914 65.0487C36.1199 64.969 33.5518 64.2424 30.9837 63.5159C29.0459 62.9485 27.3048 62.2661 25.7119 61.4676C23.2505 60.2094 21.3302 58.6346 19.9511 56.7432C19.9516 56.7136 19.9035 56.6831 19.904 56.6535C19.761 56.4731 19.6663 56.3233 19.5233 56.1429C19.238 55.7526 19.0013 55.3632 19.1551 54.9213C19.2069 54.7443 19.065 54.5047 18.8724 54.3828C18.4871 54.139 18.4922 53.8426 18.4974 53.5463C18.5238 52.0351 18.7444 50.557 19.2083 49.0831C19.8276 47.0784 20.4475 45.044 22.0859 43.2349C22.1357 43.1765 22.0404 43.0563 22.0424 42.9378C21.7524 42.8141 21.4138 42.6897 21.1243 42.5364C21.3713 42.3332 21.5696 42.1292 21.7674 41.9548C22.1134 41.6645 22.4101 41.4029 22.7073 41.1117C22.9052 40.9373 23.1035 40.7333 23.3013 40.5589C23.4991 40.3845 23.6975 40.1805 23.8953 40.0061C23.9445 39.9773 23.9942 39.9189 23.9947 39.8893C24.2417 39.6861 24.4887 39.4829 24.7357 39.2798C24.9828 39.0766 25.2293 38.9031 25.5244 38.7304C26.2639 38.2097 26.9553 37.6586 27.7916 37.1694C28.5295 36.7376 29.3648 36.3076 30.1509 35.9064C30.4953 35.7049 30.8397 35.5035 31.1835 35.3316C31.8718 34.9583 32.5118 34.5545 33.0551 34.1194C33.3513 33.8874 33.7925 33.7173 34.2332 33.5768C36.4356 32.9335 38.0156 31.6866 40.4583 31.2253C41.8343 30.5084 43.4971 30.0928 45.1128 29.5874C47.904 28.6877 50.8351 28.1461 53.9097 27.7551C55.6667 27.519 57.4715 27.343 59.2275 27.1662C60.2032 27.0647 61.1302 26.9623 62.1053 26.8904C66.7381 26.497 71.3713 26.074 76.0015 25.8288C81.8497 25.5455 87.6958 25.3808 93.5425 25.1865C94.0784 25.1662 94.6631 25.1468 95.1991 25.1265C99.1462 24.9583 103.046 24.7299 106.993 24.5321C108.212 24.4644 109.43 24.3968 110.698 24.33C114.888 24.166 119.078 24.0613 123.219 23.8965C125.266 23.8136 127.313 23.7308 129.36 23.6183C132.138 23.4593 134.915 23.3892 137.694 23.2006C139.059 23.1059 140.423 23.0408 141.836 23.0061C143.297 22.9724 144.758 22.9683 146.219 22.9937C146.511 22.9988 146.803 23.0039 147.046 23.0082C150.064 23.0905 153.127 23.3218 156.141 23.6116C157.016 23.7157 157.94 23.7912 158.814 23.925C162.36 24.4018 165.856 24.9667 169.15 25.9727C170.7 26.4443 172.001 27.2081 173.751 27.4164C174.042 27.4512 174.282 27.6629 174.523 27.7856C176.938 28.9541 179.55 29.9185 182.212 30.8542C184.581 31.844 186.856 32.6247 188.982 33.5511ZM71.2624 65.7899C71.7016 65.7382 72.092 65.6858 72.5312 65.6342C72.1847 65.9542 71.7471 65.9169 71.2624 65.7899ZM75.7435 65.7199C75.5477 65.7757 75.3028 65.8604 75.107 65.9163C75.107 65.9163 75.107 65.9163 75.0123 65.7664C75.2562 65.741 75.5001 65.7156 75.7435 65.7199ZM198.776 27.6161C198.771 27.9125 198.861 28.2993 199.151 28.4526C199.875 28.8209 200.062 29.2688 200.052 29.8021C200.044 30.3059 200.084 30.7808 199.588 31.2761C199.2 31.21 198.859 31.204 198.617 31.1109C197.165 30.6113 195.713 30.1414 194.359 29.5842C193.247 29.1499 192.233 28.6283 191.121 28.1642C190.3 27.7942 189.478 27.4835 188.557 27.2007C188.364 27.138 188.121 27.0745 187.928 27.0118C187.782 26.9796 187.637 26.9178 187.492 26.856C187.444 26.8255 187.347 26.7942 187.299 26.7637C186.575 26.3658 185.851 26.0567 185.077 25.7468C183.578 25.1575 181.978 24.7146 180.281 24.2997C176.597 23.3462 172.711 22.8041 168.823 22.3805C162.505 21.6775 156.188 20.9448 149.717 20.654C146.457 20.5081 143.243 20.4817 140.029 20.5145C138.763 20.522 137.448 20.5583 136.18 20.6251C131.015 20.8314 125.898 21.0681 120.733 21.304C119.807 21.3471 118.881 21.3902 117.955 21.4334C114.69 21.5542 111.379 21.5853 108.114 21.7062C104.605 21.8524 101.095 22.0875 97.5382 22.2329C94.9556 22.336 92.3731 22.4392 89.7905 22.5423C86.8672 22.6395 83.9926 22.7375 81.0687 22.8643C77.7068 22.9835 74.2987 22.9536 70.9834 23.1921C67.2294 23.4527 63.4775 23.5947 59.721 24.0033C58.257 24.1853 56.7454 24.3071 55.2338 24.4289C52.1131 24.6708 48.9444 24.8823 45.7751 25.1233C42.6052 25.3941 39.4344 25.724 36.5934 26.6822C36.2998 26.766 36.0057 26.8794 36.2926 27.1808C37.2687 27.0497 38.3422 26.9202 39.3671 26.7899C40.3433 26.6587 41.2744 26.3193 42.8787 26.4659C41.2133 27.0296 39.5142 26.7332 38.4293 27.5145C39.0103 27.7025 39.8974 27.0956 40.2749 27.7839C39.1388 28.7125 37.4257 29.2162 35.8571 29.8112C34.6805 30.2649 33.4076 30.6577 32.4242 31.2037C31.49 31.7209 30.5569 32.1788 29.4316 32.4852C28.2084 32.8196 27.2742 33.3368 26.2431 33.8227C25.8506 33.9936 25.5057 34.2247 25.1137 34.3661C24.0842 34.7631 23.1997 35.2219 22.3623 35.7705C22.2142 35.8864 22.0174 36.0015 21.8693 36.1175C21.7704 36.2047 21.672 36.2623 21.5731 36.3495C21.1785 36.639 20.7347 36.9573 20.2914 37.2459C20.1438 37.3323 19.9957 37.4483 19.8963 37.5651C19.8466 37.6235 19.7974 37.6523 19.6995 37.6802C19.5519 37.7666 19.4535 37.8241 19.2583 37.8504C18.6234 37.9578 18.0838 38.1855 17.6416 38.4149C16.8549 38.8458 16.2123 39.3978 15.4257 39.8286C15.131 39.9717 14.8343 40.2332 15.1704 40.5059C15.5546 40.809 15.404 41.0731 15.2046 41.3364C14.855 41.8342 14.5537 42.3624 14.0591 42.7984C13.0187 43.8177 12.2694 44.9013 11.8598 46.0501C11.603 46.8162 11.4922 47.585 11.038 48.4959C11.4259 48.5916 11.8625 48.6881 12.2985 48.8143C12.2721 50.3255 12.295 51.8079 12.2686 53.319C12.2681 53.3487 12.0242 53.3741 11.7797 53.4291C11.6917 52.894 11.5549 52.3581 11.5643 51.8247C11.5736 51.2914 11.6326 50.6996 11.0127 49.9478C10.6989 51.1872 10.439 52.1311 11.0055 53.1488C11.2417 53.5679 11.4773 54.0166 10.8383 54.3611C9.2821 54.245 8.41623 53.6371 7.79581 52.9149C6.98534 51.9227 6.3701 50.9042 5.6575 49.884C5.91072 49.3252 6.21314 48.7377 6.41768 48.1781C6.57044 47.7954 6.57769 47.3806 6.73045 46.9979C6.88321 46.6153 7.03597 46.2326 7.28609 45.8517C9.38387 42.8354 12.2559 40.0993 15.0792 37.3624C15.1284 37.3337 15.1289 37.304 15.1781 37.2753C15.7721 36.7225 16.7047 36.2941 16.8155 35.5254C16.8197 35.2884 17.3593 35.0607 17.7031 34.8888C18.439 34.5756 19.1743 34.2921 19.9102 33.9789C19.9149 33.7122 19.919 33.4752 19.9237 33.2085C20.8548 32.869 21.7372 32.5287 22.6201 32.1588C23.0127 31.9878 23.4057 31.7872 23.6533 31.5544C23.8024 31.3792 23.7579 31.1413 23.7615 30.9339C24.2985 30.8543 24.689 30.8019 24.9821 30.7477C25.4802 30.1043 25.9287 29.5193 26.4253 28.9648C27.01 28.9454 27.4973 28.9243 28.0819 28.9049C28.5889 27.7577 30.2046 27.2524 31.7727 26.687C33.5857 26.0369 34.422 25.5476 35.757 24.3853C36.0046 24.1525 36.4473 23.8935 36.8378 23.841C38.6425 23.665 39.585 22.6737 41.1495 22.3157C42.2846 21.4463 43.9008 20.9114 45.2281 20.1935C46.0147 19.7627 46.8977 19.3928 47.8282 19.083C48.0245 18.9975 48.2202 18.9416 48.4647 18.8866C49.9825 18.4092 51.5962 18.0224 53.2088 17.6949C54.4796 17.4206 55.5578 17.0245 56.4448 16.4176C56.9373 16.1001 57.5764 15.7556 58.2107 15.6777C59.7726 15.4679 61.0962 14.9575 62.4183 14.5359C64.426 13.8893 66.4343 13.2129 68.7755 12.987C69.3612 12.9083 69.9495 12.6815 70.4886 12.4834C71.8614 11.9442 73.2814 11.4948 74.9872 11.406C75.6206 11.3874 76.3523 11.3113 76.8914 11.1132C77.9214 10.6866 79.0938 10.4699 80.2663 10.2533C80.9985 10.1475 81.6821 10.0408 82.4149 9.90543C85.0036 9.44674 87.639 9.10741 90.321 8.88746C93.7839 8.56258 97.3411 8.41719 100.802 8.18121C101.388 8.13214 101.972 8.11271 102.509 8.06279C103.63 7.99344 104.8 7.92494 105.921 7.85559C106.993 7.81502 108.064 7.80411 109.136 7.79317C111.815 7.75101 114.542 7.70969 117.269 7.69801C118.682 7.69302 120.044 7.74644 121.456 7.77108C123.744 7.81102 125.984 7.76122 128.272 7.83079C128.807 7.84014 129.294 7.87826 129.829 7.88761C132.699 8.08589 135.467 8.48988 138.334 8.83632C139.937 9.04215 141.54 9.27762 143.143 9.48344C144.989 9.72315 146.836 9.96287 148.732 10.1442C149.461 10.2162 150.19 10.2882 150.87 10.3593C151.503 10.4 152.086 10.4695 152.718 10.5101C153.01 10.5152 153.302 10.55 153.593 10.5847C155.783 10.6822 158.02 10.8102 160.053 11.4978C161.07 11.8415 162.138 12.038 163.357 11.9407C164.04 11.8637 164.816 12.0551 165.495 12.2152C167.921 12.7021 170.347 13.2187 172.772 13.7353C173.597 13.9275 174.47 14.091 175.295 14.2832C177.09 14.6702 178.834 15.1749 180.53 15.6491C181.111 15.8074 181.644 15.9649 182.226 16.1233C182.468 16.1868 182.759 16.2808 183.001 16.3443C184.6 16.7872 186.15 17.2588 187.749 17.7017C189.106 18.0811 190.464 18.4012 191.326 19.2461C191.469 19.3968 191.758 19.5797 192.049 19.6441C193.116 19.8702 193.496 20.44 193.925 20.981C194.448 21.6719 195.021 22.3636 195.544 23.0544C195.877 23.5048 196.259 23.9265 196.593 24.3473C196.831 24.6478 197.461 24.8367 197.7 25.1076C197.938 25.4081 197.833 25.8213 198.121 26.0931C198.6 26.546 198.737 27.0523 198.776 27.6161Z"
              fill="#8D3CDE"
            />
          </svg>